<svg xmlns="http://www.w3.org/2000/svg" width="130" height="72" viewBox="0 0 130 72">
  <!-- Fundo Fundo Fundo Branco Fundo Quiet Zone -->
  <rect width="130" height="72" fill="#ffffff" rx="4" ry="4" stroke="#cccccc" stroke-width="0.5"/>
  
  <!-- Texto Superior ISBN convertido em glifos vetoriais 5x7 -->
  <g fill="#000000"><rect x="26.48" y="4.00" width="0.72" height="0.72"/><rect x="27.20" y="4.00" width="0.72" height="0.72"/><rect x="27.92" y="4.00" width="0.72" height="0.72"/><rect x="28.64" y="4.00" width="0.72" height="0.72"/><rect x="29.36" y="4.00" width="0.72" height="0.72"/><rect x="27.92" y="4.72" width="0.72" height="0.72"/><rect x="27.92" y="5.44" width="0.72" height="0.72"/><rect x="27.92" y="6.16" width="0.72" height="0.72"/><rect x="27.92" y="6.88" width="0.72" height="0.72"/><rect x="27.92" y="7.60" width="0.72" height="0.72"/><rect x="26.48" y="8.32" width="0.72" height="0.72"/><rect x="27.20" y="8.32" width="0.72" height="0.72"/><rect x="27.92" y="8.32" width="0.72" height="0.72"/><rect x="28.64" y="8.32" width="0.72" height="0.72"/><rect x="29.36" y="8.32" width="0.72" height="0.72"/><rect x="31.52" y="4.00" width="0.72" height="0.72"/><rect x="32.24" y="4.00" width="0.72" height="0.72"/><rect x="32.96" y="4.00" width="0.72" height="0.72"/><rect x="33.68" y="4.00" width="0.72" height="0.72"/><rect x="30.80" y="4.72" width="0.72" height="0.72"/><rect x="30.80" y="5.44" width="0.72" height="0.72"/><rect x="31.52" y="6.16" width="0.72" height="0.72"/><rect x="32.24" y="6.16" width="0.72" height="0.72"/><rect x="32.96" y="6.16" width="0.72" height="0.72"/><rect x="33.68" y="6.88" width="0.72" height="0.72"/><rect x="33.68" y="7.60" width="0.72" height="0.72"/><rect x="30.80" y="8.32" width="0.72" height="0.72"/><rect x="31.52" y="8.32" width="0.72" height="0.72"/><rect x="32.24" y="8.32" width="0.72" height="0.72"/><rect x="32.96" y="8.32" width="0.72" height="0.72"/><rect x="35.12" y="4.00" width="0.72" height="0.72"/><rect x="35.84" y="4.00" width="0.72" height="0.72"/><rect x="36.56" y="4.00" width="0.72" height="0.72"/><rect x="37.28" y="4.00" width="0.72" height="0.72"/><rect x="35.12" y="4.72" width="0.72" height="0.72"/><rect x="38.00" y="4.72" width="0.72" height="0.72"/><rect x="35.12" y="5.44" width="0.72" height="0.72"/><rect x="38.00" y="5.44" width="0.72" height="0.72"/><rect x="35.12" y="6.16" width="0.72" height="0.72"/><rect x="35.84" y="6.16" width="0.72" height="0.72"/><rect x="36.56" y="6.16" width="0.72" height="0.72"/><rect x="37.28" y="6.16" width="0.72" height="0.72"/><rect x="35.12" y="6.88" width="0.72" height="0.72"/><rect x="38.00" y="6.88" width="0.72" height="0.72"/><rect x="35.12" y="7.60" width="0.72" height="0.72"/><rect x="38.00" y="7.60" width="0.72" height="0.72"/><rect x="35.12" y="8.32" width="0.72" height="0.72"/><rect x="35.84" y="8.32" width="0.72" height="0.72"/><rect x="36.56" y="8.32" width="0.72" height="0.72"/><rect x="37.28" y="8.32" width="0.72" height="0.72"/><rect x="39.44" y="4.00" width="0.72" height="0.72"/><rect x="42.32" y="4.00" width="0.72" height="0.72"/><rect x="39.44" y="4.72" width="0.72" height="0.72"/><rect x="40.16" y="4.72" width="0.72" height="0.72"/><rect x="42.32" y="4.72" width="0.72" height="0.72"/><rect x="39.44" y="5.44" width="0.72" height="0.72"/><rect x="40.16" y="5.44" width="0.72" height="0.72"/><rect x="42.32" y="5.44" width="0.72" height="0.72"/><rect x="39.44" y="6.16" width="0.72" height="0.72"/><rect x="40.88" y="6.16" width="0.72" height="0.72"/><rect x="42.32" y="6.16" width="0.72" height="0.72"/><rect x="39.44" y="6.88" width="0.72" height="0.72"/><rect x="41.60" y="6.88" width="0.72" height="0.72"/><rect x="42.32" y="6.88" width="0.72" height="0.72"/><rect x="39.44" y="7.60" width="0.72" height="0.72"/><rect x="41.60" y="7.60" width="0.72" height="0.72"/><rect x="42.32" y="7.60" width="0.72" height="0.72"/><rect x="39.44" y="8.32" width="0.72" height="0.72"/><rect x="42.32" y="8.32" width="0.72" height="0.72"/><rect x="48.80" y="4.00" width="0.72" height="0.72"/><rect x="49.52" y="4.00" width="0.72" height="0.72"/><rect x="50.24" y="4.00" width="0.72" height="0.72"/><rect x="48.08" y="4.72" width="0.72" height="0.72"/><rect x="50.96" y="4.72" width="0.72" height="0.72"/><rect x="48.08" y="5.44" width="0.72" height="0.72"/><rect x="50.96" y="5.44" width="0.72" height="0.72"/><rect x="48.80" y="6.16" width="0.72" height="0.72"/><rect x="49.52" y="6.16" width="0.72" height="0.72"/><rect x="50.24" y="6.16" width="0.72" height="0.72"/><rect x="50.96" y="6.16" width="0.72" height="0.72"/><rect x="50.96" y="6.88" width="0.72" height="0.72"/><rect x="50.96" y="7.60" width="0.72" height="0.72"/><rect x="48.80" y="8.32" width="0.72" height="0.72"/><rect x="49.52" y="8.32" width="0.72" height="0.72"/><rect x="50.24" y="8.32" width="0.72" height="0.72"/><rect x="52.40" y="4.00" width="0.72" height="0.72"/><rect x="53.12" y="4.00" width="0.72" height="0.72"/><rect x="53.84" y="4.00" width="0.72" height="0.72"/><rect x="54.56" y="4.00" width="0.72" height="0.72"/><rect x="55.28" y="4.00" width="0.72" height="0.72"/><rect x="55.28" y="4.72" width="0.72" height="0.72"/><rect x="54.56" y="5.44" width="0.72" height="0.72"/><rect x="53.84" y="6.16" width="0.72" height="0.72"/><rect x="53.12" y="6.88" width="0.72" height="0.72"/><rect x="53.12" y="7.60" width="0.72" height="0.72"/><rect x="53.12" y="8.32" width="0.72" height="0.72"/><rect x="57.44" y="4.00" width="0.72" height="0.72"/><rect x="58.16" y="4.00" width="0.72" height="0.72"/><rect x="58.88" y="4.00" width="0.72" height="0.72"/><rect x="56.72" y="4.72" width="0.72" height="0.72"/><rect x="59.60" y="4.72" width="0.72" height="0.72"/><rect x="56.72" y="5.44" width="0.72" height="0.72"/><rect x="59.60" y="5.44" width="0.72" height="0.72"/><rect x="57.44" y="6.16" width="0.72" height="0.72"/><rect x="58.16" y="6.16" width="0.72" height="0.72"/><rect x="58.88" y="6.16" width="0.72" height="0.72"/><rect x="56.72" y="6.88" width="0.72" height="0.72"/><rect x="59.60" y="6.88" width="0.72" height="0.72"/><rect x="56.72" y="7.60" width="0.72" height="0.72"/><rect x="59.60" y="7.60" width="0.72" height="0.72"/><rect x="57.44" y="8.32" width="0.72" height="0.72"/><rect x="58.16" y="8.32" width="0.72" height="0.72"/><rect x="58.88" y="8.32" width="0.72" height="0.72"/><rect x="61.76" y="4.00" width="0.72" height="0.72"/><rect x="62.48" y="4.00" width="0.72" height="0.72"/><rect x="63.20" y="4.00" width="0.72" height="0.72"/><rect x="61.04" y="4.72" width="0.72" height="0.72"/><rect x="61.04" y="5.44" width="0.72" height="0.72"/><rect x="61.04" y="6.16" width="0.72" height="0.72"/><rect x="61.76" y="6.16" width="0.72" height="0.72"/><rect x="62.48" y="6.16" width="0.72" height="0.72"/><rect x="63.20" y="6.16" width="0.72" height="0.72"/><rect x="61.04" y="6.88" width="0.72" height="0.72"/><rect x="63.92" y="6.88" width="0.72" height="0.72"/><rect x="61.04" y="7.60" width="0.72" height="0.72"/><rect x="63.92" y="7.60" width="0.72" height="0.72"/><rect x="61.76" y="8.32" width="0.72" height="0.72"/><rect x="62.48" y="8.32" width="0.72" height="0.72"/><rect x="63.20" y="8.32" width="0.72" height="0.72"/><rect x="65.36" y="4.00" width="0.72" height="0.72"/><rect x="66.08" y="4.00" width="0.72" height="0.72"/><rect x="66.80" y="4.00" width="0.72" height="0.72"/><rect x="67.52" y="4.00" width="0.72" height="0.72"/><rect x="68.24" y="4.00" width="0.72" height="0.72"/><rect x="65.36" y="4.72" width="0.72" height="0.72"/><rect x="65.36" y="5.44" width="0.72" height="0.72"/><rect x="65.36" y="6.16" width="0.72" height="0.72"/><rect x="66.08" y="6.16" width="0.72" height="0.72"/><rect x="66.80" y="6.16" width="0.72" height="0.72"/><rect x="67.52" y="6.16" width="0.72" height="0.72"/><rect x="68.24" y="6.88" width="0.72" height="0.72"/><rect x="68.24" y="7.60" width="0.72" height="0.72"/><rect x="65.36" y="8.32" width="0.72" height="0.72"/><rect x="66.08" y="8.32" width="0.72" height="0.72"/><rect x="66.80" y="8.32" width="0.72" height="0.72"/><rect x="67.52" y="8.32" width="0.72" height="0.72"/><rect x="70.40" y="4.00" width="0.72" height="0.72"/><rect x="71.12" y="4.00" width="0.72" height="0.72"/><rect x="71.84" y="4.00" width="0.72" height="0.72"/><rect x="69.68" y="4.72" width="0.72" height="0.72"/><rect x="72.56" y="4.72" width="0.72" height="0.72"/><rect x="69.68" y="5.44" width="0.72" height="0.72"/><rect x="72.56" y="5.44" width="0.72" height="0.72"/><rect x="70.40" y="6.16" width="0.72" height="0.72"/><rect x="71.12" y="6.16" width="0.72" height="0.72"/><rect x="71.84" y="6.16" width="0.72" height="0.72"/><rect x="72.56" y="6.16" width="0.72" height="0.72"/><rect x="72.56" y="6.88" width="0.72" height="0.72"/><rect x="72.56" y="7.60" width="0.72" height="0.72"/><rect x="70.40" y="8.32" width="0.72" height="0.72"/><rect x="71.12" y="8.32" width="0.72" height="0.72"/><rect x="71.84" y="8.32" width="0.72" height="0.72"/><rect x="74.72" y="4.00" width="0.72" height="0.72"/><rect x="75.44" y="4.00" width="0.72" height="0.72"/><rect x="76.16" y="4.00" width="0.72" height="0.72"/><rect x="74.00" y="4.72" width="0.72" height="0.72"/><rect x="76.88" y="4.72" width="0.72" height="0.72"/><rect x="74.00" y="5.44" width="0.72" height="0.72"/><rect x="76.88" y="5.44" width="0.72" height="0.72"/><rect x="74.72" y="6.16" width="0.72" height="0.72"/><rect x="75.44" y="6.16" width="0.72" height="0.72"/><rect x="76.16" y="6.16" width="0.72" height="0.72"/><rect x="74.00" y="6.88" width="0.72" height="0.72"/><rect x="76.88" y="6.88" width="0.72" height="0.72"/><rect x="74.00" y="7.60" width="0.72" height="0.72"/><rect x="76.88" y="7.60" width="0.72" height="0.72"/><rect x="74.72" y="8.32" width="0.72" height="0.72"/><rect x="75.44" y="8.32" width="0.72" height="0.72"/><rect x="76.16" y="8.32" width="0.72" height="0.72"/><rect x="79.04" y="4.00" width="0.72" height="0.72"/><rect x="79.76" y="4.00" width="0.72" height="0.72"/><rect x="80.48" y="4.00" width="0.72" height="0.72"/><rect x="78.32" y="4.72" width="0.72" height="0.72"/><rect x="81.20" y="4.72" width="0.72" height="0.72"/><rect x="78.32" y="5.44" width="0.72" height="0.72"/><rect x="81.20" y="5.44" width="0.72" height="0.72"/><rect x="79.04" y="6.16" width="0.72" height="0.72"/><rect x="79.76" y="6.16" width="0.72" height="0.72"/><rect x="80.48" y="6.16" width="0.72" height="0.72"/><rect x="78.32" y="6.88" width="0.72" height="0.72"/><rect x="81.20" y="6.88" width="0.72" height="0.72"/><rect x="78.32" y="7.60" width="0.72" height="0.72"/><rect x="81.20" y="7.60" width="0.72" height="0.72"/><rect x="79.04" y="8.32" width="0.72" height="0.72"/><rect x="79.76" y="8.32" width="0.72" height="0.72"/><rect x="80.48" y="8.32" width="0.72" height="0.72"/><rect x="83.36" y="4.00" width="0.72" height="0.72"/><rect x="84.08" y="4.00" width="0.72" height="0.72"/><rect x="84.80" y="4.00" width="0.72" height="0.72"/><rect x="82.64" y="4.72" width="0.72" height="0.72"/><rect x="85.52" y="4.72" width="0.72" height="0.72"/><rect x="85.52" y="5.44" width="0.72" height="0.72"/><rect x="84.80" y="6.16" width="0.72" height="0.72"/><rect x="84.08" y="6.88" width="0.72" height="0.72"/><rect x="83.36" y="7.60" width="0.72" height="0.72"/><rect x="82.64" y="8.32" width="0.72" height="0.72"/><rect x="83.36" y="8.32" width="0.72" height="0.72"/><rect x="84.08" y="8.32" width="0.72" height="0.72"/><rect x="84.80" y="8.32" width="0.72" height="0.72"/><rect x="85.52" y="8.32" width="0.72" height="0.72"/><rect x="87.68" y="4.00" width="0.72" height="0.72"/><rect x="88.40" y="4.00" width="0.72" height="0.72"/><rect x="89.12" y="4.00" width="0.72" height="0.72"/><rect x="86.96" y="4.72" width="0.72" height="0.72"/><rect x="89.84" y="4.72" width="0.72" height="0.72"/><rect x="86.96" y="5.44" width="0.72" height="0.72"/><rect x="89.12" y="5.44" width="0.72" height="0.72"/><rect x="89.84" y="5.44" width="0.72" height="0.72"/><rect x="86.96" y="6.16" width="0.72" height="0.72"/><rect x="88.40" y="6.16" width="0.72" height="0.72"/><rect x="89.84" y="6.16" width="0.72" height="0.72"/><rect x="86.96" y="6.88" width="0.72" height="0.72"/><rect x="87.68" y="6.88" width="0.72" height="0.72"/><rect x="89.84" y="6.88" width="0.72" height="0.72"/><rect x="86.96" y="7.60" width="0.72" height="0.72"/><rect x="89.84" y="7.60" width="0.72" height="0.72"/><rect x="87.68" y="8.32" width="0.72" height="0.72"/><rect x="88.40" y="8.32" width="0.72" height="0.72"/><rect x="89.12" y="8.32" width="0.72" height="0.72"/><rect x="92.00" y="4.00" width="0.72" height="0.72"/><rect x="92.72" y="4.00" width="0.72" height="0.72"/><rect x="93.44" y="4.00" width="0.72" height="0.72"/><rect x="91.28" y="4.72" width="0.72" height="0.72"/><rect x="94.16" y="4.72" width="0.72" height="0.72"/><rect x="94.16" y="5.44" width="0.72" height="0.72"/><rect x="93.44" y="6.16" width="0.72" height="0.72"/><rect x="92.72" y="6.88" width="0.72" height="0.72"/><rect x="92.00" y="7.60" width="0.72" height="0.72"/><rect x="91.28" y="8.32" width="0.72" height="0.72"/><rect x="92.00" y="8.32" width="0.72" height="0.72"/><rect x="92.72" y="8.32" width="0.72" height="0.72"/><rect x="93.44" y="8.32" width="0.72" height="0.72"/><rect x="94.16" y="8.32" width="0.72" height="0.72"/><rect x="95.60" y="4.00" width="0.72" height="0.72"/><rect x="96.32" y="4.00" width="0.72" height="0.72"/><rect x="97.04" y="4.00" width="0.72" height="0.72"/><rect x="97.76" y="4.00" width="0.72" height="0.72"/><rect x="98.48" y="4.00" width="0.72" height="0.72"/><rect x="98.48" y="4.72" width="0.72" height="0.72"/><rect x="97.76" y="5.44" width="0.72" height="0.72"/><rect x="97.04" y="6.16" width="0.72" height="0.72"/><rect x="96.32" y="6.88" width="0.72" height="0.72"/><rect x="96.32" y="7.60" width="0.72" height="0.72"/><rect x="96.32" y="8.32" width="0.72" height="0.72"/><rect x="99.92" y="4.00" width="0.72" height="0.72"/><rect x="100.64" y="4.00" width="0.72" height="0.72"/><rect x="101.36" y="4.00" width="0.72" height="0.72"/><rect x="102.08" y="4.00" width="0.72" height="0.72"/><rect x="102.80" y="4.00" width="0.72" height="0.72"/><rect x="99.92" y="4.72" width="0.72" height="0.72"/><rect x="99.92" y="5.44" width="0.72" height="0.72"/><rect x="99.92" y="6.16" width="0.72" height="0.72"/><rect x="100.64" y="6.16" width="0.72" height="0.72"/><rect x="101.36" y="6.16" width="0.72" height="0.72"/><rect x="102.08" y="6.16" width="0.72" height="0.72"/><rect x="102.80" y="6.88" width="0.72" height="0.72"/><rect x="102.80" y="7.60" width="0.72" height="0.72"/><rect x="99.92" y="8.32" width="0.72" height="0.72"/><rect x="100.64" y="8.32" width="0.72" height="0.72"/><rect x="101.36" y="8.32" width="0.72" height="0.72"/><rect x="102.08" y="8.32" width="0.72" height="0.72"/></g>
  
  <!-- Barras Vetoriais EAN-13 -->
  <g>
    <rect x="18.0" y="18" width="1.0" height="42.0" fill="#000000"/>
    <rect x="20.0" y="18" width="1.0" height="42.0" fill="#000000"/>
    <rect x="22.0" y="18" width="1.0" height="36.0" fill="#000000"/>
    <rect x="23.0" y="18" width="1.0" height="36.0" fill="#000000"/>
    <rect x="24.0" y="18" width="1.0" height="36.0" fill="#000000"/>
    <rect x="26.0" y="18" width="1.0" height="36.0" fill="#000000"/>
    <rect x="27.0" y="18" width="1.0" height="36.0" fill="#000000"/>
    <rect x="31.0" y="18" width="1.0" height="36.0" fill="#000000"/>
    <rect x="34.0" y="18" width="1.0" height="36.0" fill="#000000"/>
    <rect x="39.0" y="18" width="1.0" height="36.0" fill="#000000"/>
    <rect x="41.0" y="18" width="1.0" height="36.0" fill="#000000"/>
    <rect x="43.0" y="18" width="1.0" height="36.0" fill="#000000"/>
    <rect x="44.0" y="18" width="1.0" height="36.0" fill="#000000"/>
    <rect x="48.0" y="18" width="1.0" height="36.0" fill="#000000"/>
    <rect x="51.0" y="18" width="1.0" height="36.0" fill="#000000"/>
    <rect x="53.0" y="18" width="1.0" height="36.0" fill="#000000"/>
    <rect x="54.0" y="18" width="1.0" height="36.0" fill="#000000"/>
    <rect x="55.0" y="18" width="1.0" height="36.0" fill="#000000"/>
    <rect x="57.0" y="18" width="1.0" height="36.0" fill="#000000"/>
    <rect x="58.0" y="18" width="1.0" height="36.0" fill="#000000"/>
    <rect x="60.0" y="18" width="1.0" height="36.0" fill="#000000"/>
    <rect x="61.0" y="18" width="1.0" height="36.0" fill="#000000"/>
    <rect x="62.0" y="18" width="1.0" height="36.0" fill="#000000"/>
    <rect x="64.0" y="18" width="1.0" height="42.0" fill="#000000"/>
    <rect x="66.0" y="18" width="1.0" height="42.0" fill="#000000"/>
    <rect x="68.0" y="18" width="1.0" height="36.0" fill="#000000"/>
    <rect x="71.0" y="18" width="1.0" height="36.0" fill="#000000"/>
    <rect x="75.0" y="18" width="1.0" height="36.0" fill="#000000"/>
    <rect x="76.0" y="18" width="1.0" height="36.0" fill="#000000"/>
    <rect x="78.0" y="18" width="1.0" height="36.0" fill="#000000"/>
    <rect x="79.0" y="18" width="1.0" height="36.0" fill="#000000"/>
    <rect x="82.0" y="18" width="1.0" height="36.0" fill="#000000"/>
    <rect x="83.0" y="18" width="1.0" height="36.0" fill="#000000"/>
    <rect x="84.0" y="18" width="1.0" height="36.0" fill="#000000"/>
    <rect x="87.0" y="18" width="1.0" height="36.0" fill="#000000"/>
    <rect x="89.0" y="18" width="1.0" height="36.0" fill="#000000"/>
    <rect x="90.0" y="18" width="1.0" height="36.0" fill="#000000"/>
    <rect x="92.0" y="18" width="1.0" height="36.0" fill="#000000"/>
    <rect x="93.0" y="18" width="1.0" height="36.0" fill="#000000"/>
    <rect x="96.0" y="18" width="1.0" height="36.0" fill="#000000"/>
    <rect x="100.0" y="18" width="1.0" height="36.0" fill="#000000"/>
    <rect x="103.0" y="18" width="1.0" height="36.0" fill="#000000"/>
    <rect x="106.0" y="18" width="1.0" height="36.0" fill="#000000"/>
    <rect x="107.0" y="18" width="1.0" height="36.0" fill="#000000"/>
    <rect x="108.0" y="18" width="1.0" height="36.0" fill="#000000"/>
    <rect x="110.0" y="18" width="1.0" height="42.0" fill="#000000"/>
    <rect x="112.0" y="18" width="1.0" height="42.0" fill="#000000"/>
  </g>

  <!-- Dígitos inferiores convertidos em glifos vetoriais 5x7 -->
  <g fill="#000000"><rect x="38.03" y="59.00" width="0.62" height="0.62"/><rect x="38.65" y="59.00" width="0.62" height="0.62"/><rect x="39.27" y="59.00" width="0.62" height="0.62"/><rect x="37.41" y="59.62" width="0.62" height="0.62"/><rect x="39.89" y="59.62" width="0.62" height="0.62"/><rect x="37.41" y="60.24" width="0.62" height="0.62"/><rect x="39.89" y="60.24" width="0.62" height="0.62"/><rect x="38.03" y="60.86" width="0.62" height="0.62"/><rect x="38.65" y="60.86" width="0.62" height="0.62"/><rect x="39.27" y="60.86" width="0.62" height="0.62"/><rect x="39.89" y="60.86" width="0.62" height="0.62"/><rect x="39.89" y="61.48" width="0.62" height="0.62"/><rect x="39.89" y="62.10" width="0.62" height="0.62"/><rect x="38.03" y="62.72" width="0.62" height="0.62"/><rect x="38.65" y="62.72" width="0.62" height="0.62"/><rect x="39.27" y="62.72" width="0.62" height="0.62"/><rect x="44.85" y="59.00" width="0.62" height="0.62"/><rect x="45.47" y="59.00" width="0.62" height="0.62"/><rect x="46.09" y="59.00" width="0.62" height="0.62"/><rect x="46.71" y="59.00" width="0.62" height="0.62"/><rect x="47.33" y="59.00" width="0.62" height="0.62"/><rect x="47.33" y="59.62" width="0.62" height="0.62"/><rect x="46.71" y="60.24" width="0.62" height="0.62"/><rect x="46.09" y="60.86" width="0.62" height="0.62"/><rect x="45.47" y="61.48" width="0.62" height="0.62"/><rect x="45.47" y="62.10" width="0.62" height="0.62"/><rect x="45.47" y="62.72" width="0.62" height="0.62"/><rect x="49.19" y="59.00" width="0.62" height="0.62"/><rect x="49.81" y="59.00" width="0.62" height="0.62"/><rect x="50.43" y="59.00" width="0.62" height="0.62"/><rect x="48.57" y="59.62" width="0.62" height="0.62"/><rect x="51.05" y="59.62" width="0.62" height="0.62"/><rect x="48.57" y="60.24" width="0.62" height="0.62"/><rect x="51.05" y="60.24" width="0.62" height="0.62"/><rect x="49.19" y="60.86" width="0.62" height="0.62"/><rect x="49.81" y="60.86" width="0.62" height="0.62"/><rect x="50.43" y="60.86" width="0.62" height="0.62"/><rect x="48.57" y="61.48" width="0.62" height="0.62"/><rect x="51.05" y="61.48" width="0.62" height="0.62"/><rect x="48.57" y="62.10" width="0.62" height="0.62"/><rect x="51.05" y="62.10" width="0.62" height="0.62"/><rect x="49.19" y="62.72" width="0.62" height="0.62"/><rect x="49.81" y="62.72" width="0.62" height="0.62"/><rect x="50.43" y="62.72" width="0.62" height="0.62"/><rect x="52.91" y="59.00" width="0.62" height="0.62"/><rect x="53.53" y="59.00" width="0.62" height="0.62"/><rect x="54.15" y="59.00" width="0.62" height="0.62"/><rect x="52.29" y="59.62" width="0.62" height="0.62"/><rect x="52.29" y="60.24" width="0.62" height="0.62"/><rect x="52.29" y="60.86" width="0.62" height="0.62"/><rect x="52.91" y="60.86" width="0.62" height="0.62"/><rect x="53.53" y="60.86" width="0.62" height="0.62"/><rect x="54.15" y="60.86" width="0.62" height="0.62"/><rect x="52.29" y="61.48" width="0.62" height="0.62"/><rect x="54.77" y="61.48" width="0.62" height="0.62"/><rect x="52.29" y="62.10" width="0.62" height="0.62"/><rect x="54.77" y="62.10" width="0.62" height="0.62"/><rect x="52.91" y="62.72" width="0.62" height="0.62"/><rect x="53.53" y="62.72" width="0.62" height="0.62"/><rect x="54.15" y="62.72" width="0.62" height="0.62"/><rect x="56.01" y="59.00" width="0.62" height="0.62"/><rect x="56.63" y="59.00" width="0.62" height="0.62"/><rect x="57.25" y="59.00" width="0.62" height="0.62"/><rect x="57.87" y="59.00" width="0.62" height="0.62"/><rect x="58.49" y="59.00" width="0.62" height="0.62"/><rect x="56.01" y="59.62" width="0.62" height="0.62"/><rect x="56.01" y="60.24" width="0.62" height="0.62"/><rect x="56.01" y="60.86" width="0.62" height="0.62"/><rect x="56.63" y="60.86" width="0.62" height="0.62"/><rect x="57.25" y="60.86" width="0.62" height="0.62"/><rect x="57.87" y="60.86" width="0.62" height="0.62"/><rect x="58.49" y="61.48" width="0.62" height="0.62"/><rect x="58.49" y="62.10" width="0.62" height="0.62"/><rect x="56.01" y="62.72" width="0.62" height="0.62"/><rect x="56.63" y="62.72" width="0.62" height="0.62"/><rect x="57.25" y="62.72" width="0.62" height="0.62"/><rect x="57.87" y="62.72" width="0.62" height="0.62"/><rect x="60.35" y="59.00" width="0.62" height="0.62"/><rect x="60.97" y="59.00" width="0.62" height="0.62"/><rect x="61.59" y="59.00" width="0.62" height="0.62"/><rect x="59.73" y="59.62" width="0.62" height="0.62"/><rect x="62.21" y="59.62" width="0.62" height="0.62"/><rect x="59.73" y="60.24" width="0.62" height="0.62"/><rect x="62.21" y="60.24" width="0.62" height="0.62"/><rect x="60.35" y="60.86" width="0.62" height="0.62"/><rect x="60.97" y="60.86" width="0.62" height="0.62"/><rect x="61.59" y="60.86" width="0.62" height="0.62"/><rect x="62.21" y="60.86" width="0.62" height="0.62"/><rect x="62.21" y="61.48" width="0.62" height="0.62"/><rect x="62.21" y="62.10" width="0.62" height="0.62"/><rect x="60.35" y="62.72" width="0.62" height="0.62"/><rect x="60.97" y="62.72" width="0.62" height="0.62"/><rect x="61.59" y="62.72" width="0.62" height="0.62"/><rect x="64.07" y="59.00" width="0.62" height="0.62"/><rect x="64.69" y="59.00" width="0.62" height="0.62"/><rect x="65.31" y="59.00" width="0.62" height="0.62"/><rect x="63.45" y="59.62" width="0.62" height="0.62"/><rect x="65.93" y="59.62" width="0.62" height="0.62"/><rect x="63.45" y="60.24" width="0.62" height="0.62"/><rect x="65.93" y="60.24" width="0.62" height="0.62"/><rect x="64.07" y="60.86" width="0.62" height="0.62"/><rect x="64.69" y="60.86" width="0.62" height="0.62"/><rect x="65.31" y="60.86" width="0.62" height="0.62"/><rect x="63.45" y="61.48" width="0.62" height="0.62"/><rect x="65.93" y="61.48" width="0.62" height="0.62"/><rect x="63.45" y="62.10" width="0.62" height="0.62"/><rect x="65.93" y="62.10" width="0.62" height="0.62"/><rect x="64.07" y="62.72" width="0.62" height="0.62"/><rect x="64.69" y="62.72" width="0.62" height="0.62"/><rect x="65.31" y="62.72" width="0.62" height="0.62"/><rect x="71.51" y="59.00" width="0.62" height="0.62"/><rect x="72.13" y="59.00" width="0.62" height="0.62"/><rect x="72.75" y="59.00" width="0.62" height="0.62"/><rect x="70.89" y="59.62" width="0.62" height="0.62"/><rect x="73.37" y="59.62" width="0.62" height="0.62"/><rect x="70.89" y="60.24" width="0.62" height="0.62"/><rect x="73.37" y="60.24" width="0.62" height="0.62"/><rect x="71.51" y="60.86" width="0.62" height="0.62"/><rect x="72.13" y="60.86" width="0.62" height="0.62"/><rect x="72.75" y="60.86" width="0.62" height="0.62"/><rect x="70.89" y="61.48" width="0.62" height="0.62"/><rect x="73.37" y="61.48" width="0.62" height="0.62"/><rect x="70.89" y="62.10" width="0.62" height="0.62"/><rect x="73.37" y="62.10" width="0.62" height="0.62"/><rect x="71.51" y="62.72" width="0.62" height="0.62"/><rect x="72.13" y="62.72" width="0.62" height="0.62"/><rect x="72.75" y="62.72" width="0.62" height="0.62"/><rect x="75.23" y="59.00" width="0.62" height="0.62"/><rect x="75.85" y="59.00" width="0.62" height="0.62"/><rect x="76.47" y="59.00" width="0.62" height="0.62"/><rect x="74.61" y="59.62" width="0.62" height="0.62"/><rect x="77.09" y="59.62" width="0.62" height="0.62"/><rect x="77.09" y="60.24" width="0.62" height="0.62"/><rect x="76.47" y="60.86" width="0.62" height="0.62"/><rect x="75.85" y="61.48" width="0.62" height="0.62"/><rect x="75.23" y="62.10" width="0.62" height="0.62"/><rect x="74.61" y="62.72" width="0.62" height="0.62"/><rect x="75.23" y="62.72" width="0.62" height="0.62"/><rect x="75.85" y="62.72" width="0.62" height="0.62"/><rect x="76.47" y="62.72" width="0.62" height="0.62"/><rect x="77.09" y="62.72" width="0.62" height="0.62"/><rect x="78.95" y="59.00" width="0.62" height="0.62"/><rect x="79.57" y="59.00" width="0.62" height="0.62"/><rect x="80.19" y="59.00" width="0.62" height="0.62"/><rect x="78.33" y="59.62" width="0.62" height="0.62"/><rect x="80.81" y="59.62" width="0.62" height="0.62"/><rect x="78.33" y="60.24" width="0.62" height="0.62"/><rect x="80.19" y="60.24" width="0.62" height="0.62"/><rect x="80.81" y="60.24" width="0.62" height="0.62"/><rect x="78.33" y="60.86" width="0.62" height="0.62"/><rect x="79.57" y="60.86" width="0.62" height="0.62"/><rect x="80.81" y="60.86" width="0.62" height="0.62"/><rect x="78.33" y="61.48" width="0.62" height="0.62"/><rect x="78.95" y="61.48" width="0.62" height="0.62"/><rect x="80.81" y="61.48" width="0.62" height="0.62"/><rect x="78.33" y="62.10" width="0.62" height="0.62"/><rect x="80.81" y="62.10" width="0.62" height="0.62"/><rect x="78.95" y="62.72" width="0.62" height="0.62"/><rect x="79.57" y="62.72" width="0.62" height="0.62"/><rect x="80.19" y="62.72" width="0.62" height="0.62"/><rect x="82.67" y="59.00" width="0.62" height="0.62"/><rect x="83.29" y="59.00" width="0.62" height="0.62"/><rect x="83.91" y="59.00" width="0.62" height="0.62"/><rect x="82.05" y="59.62" width="0.62" height="0.62"/><rect x="84.53" y="59.62" width="0.62" height="0.62"/><rect x="84.53" y="60.24" width="0.62" height="0.62"/><rect x="83.91" y="60.86" width="0.62" height="0.62"/><rect x="83.29" y="61.48" width="0.62" height="0.62"/><rect x="82.67" y="62.10" width="0.62" height="0.62"/><rect x="82.05" y="62.72" width="0.62" height="0.62"/><rect x="82.67" y="62.72" width="0.62" height="0.62"/><rect x="83.29" y="62.72" width="0.62" height="0.62"/><rect x="83.91" y="62.72" width="0.62" height="0.62"/><rect x="84.53" y="62.72" width="0.62" height="0.62"/><rect x="85.77" y="59.00" width="0.62" height="0.62"/><rect x="86.39" y="59.00" width="0.62" height="0.62"/><rect x="87.01" y="59.00" width="0.62" height="0.62"/><rect x="87.63" y="59.00" width="0.62" height="0.62"/><rect x="88.25" y="59.00" width="0.62" height="0.62"/><rect x="88.25" y="59.62" width="0.62" height="0.62"/><rect x="87.63" y="60.24" width="0.62" height="0.62"/><rect x="87.01" y="60.86" width="0.62" height="0.62"/><rect x="86.39" y="61.48" width="0.62" height="0.62"/><rect x="86.39" y="62.10" width="0.62" height="0.62"/><rect x="86.39" y="62.72" width="0.62" height="0.62"/><rect x="89.49" y="59.00" width="0.62" height="0.62"/><rect x="90.11" y="59.00" width="0.62" height="0.62"/><rect x="90.73" y="59.00" width="0.62" height="0.62"/><rect x="91.35" y="59.00" width="0.62" height="0.62"/><rect x="91.97" y="59.00" width="0.62" height="0.62"/><rect x="89.49" y="59.62" width="0.62" height="0.62"/><rect x="89.49" y="60.24" width="0.62" height="0.62"/><rect x="89.49" y="60.86" width="0.62" height="0.62"/><rect x="90.11" y="60.86" width="0.62" height="0.62"/><rect x="90.73" y="60.86" width="0.62" height="0.62"/><rect x="91.35" y="60.86" width="0.62" height="0.62"/><rect x="91.97" y="61.48" width="0.62" height="0.62"/><rect x="91.97" y="62.10" width="0.62" height="0.62"/><rect x="89.49" y="62.72" width="0.62" height="0.62"/><rect x="90.11" y="62.72" width="0.62" height="0.62"/><rect x="90.73" y="62.72" width="0.62" height="0.62"/><rect x="91.35" y="62.72" width="0.62" height="0.62"/></g>
</svg>
