<?xml version="1.0" encoding="UTF-8"?>
<svg id="Camada_1" xmlns="http://www.w3.org/2000/svg" xmlns:xlink="http://www.w3.org/1999/xlink" viewBox="0 0 1080 566.99">
  <defs>
    <style>
      .cls-1 {
        fill: none;
      }

      .cls-2 {
        fill: #b5bfc2;
      }
    </style>
    <clipPath id="clippath">
      <rect class="cls-1" x="-1265.36" y="92.41" width="1080" height="949.17"/>
    </clipPath>
    <clipPath id="clippath-1">
      <rect class="cls-1" x="-1265.36" y="92.42" width="1079.99" height="949.16"/>
    </clipPath>
  </defs>
  <path class="cls-2" d="M399.81,136.75s-77.57-3.18-95.66-55.04c0,0-9.98,17.76,0,29.57,0,0-44.72-40.49-102.29-35.94,0,0,24.75,12.85,33.31,30.53,0,0-126.57-24.62-163.7,42.24,0,0,11.41-9.1,30.44-8.18,0,0-33.29,17.73-50.44,39.57-17.13,21.84-37.6,25.92-37.6,25.92,0,0,20.94.45,33.31-4.55,0,0-29.01,13.65-37.1,39.57,0,0,9.51-15,29.01-18.18,0,0-31.83,31.47-39.1,61.49,0,0,37.86,63.17,138.61,67.79,0,0-16.93,6.93-29.82,5.38,0,0,32.24,16.19,86.22,6.93,0,0-17.73,13.09-35.47,13.09,0,0,42.71,16.19,78.98,0,0,0-3.23,11.57-13.7,16.95,0,0,31.43-4.62,51.58-17.71,20.13-13.09,24.97-13.09,24.97-13.09,0,0-15.85-174.59,98.42-226.33"/>
  <path class="cls-2" d="M304.72,286.41c8.09-53.69,31.34-120.79,95.1-149.66,0,0-77.57-3.18-95.66-55.01,0,0-10,17.73,0,29.55,0,0-44.72-40.46-102.29-35.94,0,0,24.73,12.85,33.29,30.53,0,0-126.57-24.62-163.7,42.24,0,0,11.43-9.08,30.47-8.18,0,0-33.31,17.73-50.44,39.57-17.13,21.84-37.6,25.92-37.6,25.92,0,0,20.94.47,33.31-4.55,0,0-29.03,13.65-37.12,39.57,0,0,9.53-15,29.03-18.18,0,0-31.14,30.78-38.85,60.51,15.27-12.08,44.46-32.04,80.17-40.8,0,0-22.19,10.96-34.39,30.13,0,0,25.09-21.23,56.61-27.37,0,0-27.93,10.94-42.28,31.47,0,0,29.37-13,61.6-14.37,32.24-1.37,66.63,3.43,126.77-27.37,0,0,17.19-6.86,27.96-2.76,0,0,9.28,4.55,13.88,15.89,0,0-20.98-10.02-33.02,4.12,0,0,17.89-5.76,29.01,9.8"/>
  <path class="cls-2" d="M680.19,127.17s77.57-3.18,95.66-55.04c0,0,9.98,17.73,0,29.57,0,0,44.72-40.49,102.29-35.94,0,0-24.73,12.85-33.31,30.53,0,0,126.59-24.62,163.7,42.24,0,0-11.41-9.1-30.44-8.18,0,0,33.31,17.73,50.44,39.57,17.13,21.84,37.6,25.92,37.6,25.92,0,0-20.94.45-33.31-4.55,0,0,29.03,13.65,37.12,39.57,0,0-9.53-15-29.03-18.18,0,0,31.86,31.47,39.1,61.49,0,0-37.86,63.17-138.61,67.79,0,0,16.93,6.93,29.82,5.38,0,0-32.24,16.19-86.22,6.93,0,0,17.73,13.09,35.47,13.09,0,0-42.71,16.19-78.98,0,0,0,3.23,11.57,13.7,16.95,0,0-31.43-4.62-51.58-17.71-20.13-13.09-24.97-13.09-24.97-13.09,0,0,15.85-174.59-98.42-226.33"/>
  <path class="cls-2" d="M680.19,127.17s77.57-3.18,95.66-55.04c0,0,9.98,17.76,0,29.57,0,0,44.72-40.49,102.29-35.94,0,0-24.73,12.85-33.31,30.53,0,0,126.59-24.62,163.7,42.24,0,0-11.41-9.1-30.44-8.18,0,0,33.31,17.73,50.44,39.57,17.13,21.84,37.6,25.92,37.6,25.92,0,0-20.94.45-33.31-4.55,0,0,29.03,13.65,37.12,39.57,0,0-9.53-15-29.03-18.18,0,0,31.12,30.78,38.83,60.51-15.24-12.08-44.43-32.04-80.14-40.8,0,0,22.19,10.96,34.37,30.13,0,0-25.06-21.23-56.58-27.39,0,0,27.93,10.96,42.26,31.5,0,0-29.37-13-61.58-14.37-32.24-1.37-66.63,3.43-126.8-27.37,0,0-17.19-6.86-27.93-2.76,0,0-9.28,4.55-13.88,15.89,0,0,20.98-10.04,33.02,4.12,0,0-17.91-5.76-29.01,9.8,0,0,20.67-6.86,33.63,1.7,0,0-31.25,3.09-51.79,23.2-8.12-53.69-31.34-120.79-95.1-149.66"/>
  <path class="cls-2" d="M544.65,518.85c33.11-.61,66.81,1.12,99.67-3.16,40.96-5.31,82.16-18.83,112.09-47.1,41.11-38.83,50.46-96.22,47.01-149.19-4.04-62.08-23.79-125.05-70.93-169.84-32.04-30.44-73.78-49.7-117.65-58.85-43.04-8.94-91.31-9.3-134.87-1.1-41.32,7.8-81.13,24.35-113.05,50.91-45.51,37.84-69.43,92.34-77.86,148.52-1.52,10.07-2.58,20.2-3.23,30.35-3.41,52.23,5.56,108.79,45.37,147.62,29.03,28.31,69.34,42.35,109.65,48.11,34.12,4.89,68.71,4.39,103.1,3.72h.69"/>
</svg>